<svg width="13" height="16" viewBox="0 0 13 16" fill="none" xmlns="http://www.w3.org/2000/svg">
<path d="M5.42347 0.0531119C2.76461 0.349929 0.115129 2.50107 0.00577548 5.57391C-0.0629612 7.4501 0.469747 8.85764 2.25534 9.25288C3.03019 7.88596 2.00539 7.58445 1.84604 6.59558C1.19148 2.54325 6.52013 -0.220272 9.30865 2.60886C11.238 4.56785 9.9679 10.5948 6.85601 9.96836C3.87533 9.37004 8.3151 4.57254 5.93587 3.63054C4.00187 2.86506 2.97395 5.97227 3.89096 7.51572C3.35356 10.1699 2.19597 12.671 2.66463 16C4.18465 14.8971 4.69705 12.785 5.11728 10.5823C5.8812 11.0463 6.28893 11.529 7.26374 11.604C10.8584 11.8821 12.8658 8.01562 12.3752 4.44913C11.9394 1.28725 8.78376 -0.321815 5.42347 0.0531119Z" fill="white"/>
</svg>
